<svg xmlns="http://www.w3.org/2000/svg" xmlns:xlink="http://www.w3.org/1999/xlink" width="1920" zoomAndPan="magnify" viewBox="0 0 1440 809.999993" height="1080" preserveAspectRatio="xMidYMid meet" version="1.0"><defs><g/><clipPath id="1ea06c4582"><path d="M 490 247 L 729.828125 247 L 729.828125 573 L 490 573 Z M 490 247 " clip-rule="nonzero"/></clipPath></defs><g clip-path="url(#1ea06c4582)"><path fill="#fff5cc" d="M 725.363281 249.035156 C 725.707031 249.09375 726.042969 249.183594 726.367188 249.304688 C 726.695312 249.429688 727.003906 249.582031 727.300781 249.769531 C 727.597656 249.953125 727.871094 250.164062 728.125 250.402344 C 728.382812 250.644531 728.609375 250.902344 728.8125 251.1875 C 729.015625 251.472656 729.1875 251.773438 729.332031 252.089844 C 729.476562 252.410156 729.585938 252.738281 729.664062 253.078125 C 729.742188 253.417969 729.789062 253.761719 729.800781 254.109375 C 729.8125 254.460938 729.789062 254.804688 729.730469 255.148438 C 729.671875 255.496094 729.582031 255.828125 729.457031 256.15625 C 729.335938 256.480469 729.179688 256.792969 728.996094 257.089844 C 728.8125 257.386719 728.601562 257.660156 728.359375 257.914062 C 728.121094 258.167969 727.859375 258.398438 727.578125 258.601562 C 727.292969 258.804688 726.992188 258.976562 726.675781 259.121094 C 726.355469 259.261719 726.027344 259.375 725.6875 259.453125 C 725.347656 259.53125 725.003906 259.578125 724.65625 259.585938 C 724.304688 259.597656 723.960938 259.574219 723.613281 259.519531 C 654.054688 247.855469 580.140625 293.070312 558.851562 360.300781 C 556.203125 368.246094 554.652344 376.398438 554.207031 384.761719 C 557.257812 382.582031 560.511719 380.761719 563.96875 379.308594 C 567.421875 377.851562 570.996094 376.796875 574.6875 376.140625 C 576.25 375.917969 577.820312 375.789062 579.398438 375.75 C 580.972656 375.714844 582.546875 375.769531 584.121094 375.917969 C 585.691406 376.0625 587.246094 376.304688 588.789062 376.636719 C 590.332031 376.964844 591.851562 377.386719 593.34375 377.898438 C 594.835938 378.40625 596.292969 379.003906 597.71875 379.683594 C 599.140625 380.363281 600.519531 381.128906 601.851562 381.972656 C 603.183594 382.816406 604.464844 383.734375 605.691406 384.726562 C 606.914062 385.722656 608.078125 386.785156 609.175781 387.917969 C 616.375 395.324219 619.464844 404.789062 617.65625 413.914062 C 617.230469 415.859375 616.613281 417.738281 615.804688 419.558594 C 614.996094 421.378906 614.011719 423.097656 612.851562 424.714844 C 611.691406 426.332031 610.378906 427.816406 608.917969 429.164062 C 607.453125 430.515625 605.867188 431.703125 604.164062 432.726562 C 602.1875 433.984375 600.109375 435.03125 597.925781 435.875 C 595.742188 436.71875 593.5 437.339844 591.191406 437.738281 C 588.886719 438.136719 586.5625 438.304688 584.222656 438.242188 C 581.882812 438.179688 579.574219 437.890625 577.292969 437.371094 C 563.394531 433.925781 551.667969 422.164062 546.554688 406.859375 C 543.4375 410.890625 540.636719 415.136719 538.160156 419.589844 C 516.855469 457.640625 513.894531 505.703125 529.292969 546.5 C 531.671875 535.09375 535.8125 524.367188 541.71875 514.324219 C 545.195312 508.4375 554.386719 513.773438 550.90625 519.695312 C 548.765625 523.316406 546.875 527.0625 545.230469 530.9375 C 543.585938 534.808594 542.207031 538.773438 541.089844 542.828125 C 539.972656 546.882812 539.125 550.996094 538.554688 555.164062 C 537.984375 559.332031 537.691406 563.519531 537.675781 567.726562 C 537.65625 568.242188 537.570312 568.75 537.40625 569.242188 C 537.246094 569.734375 537.015625 570.191406 536.71875 570.621094 C 536.425781 571.046875 536.078125 571.421875 535.671875 571.746094 C 535.269531 572.074219 534.828125 572.335938 534.347656 572.53125 C 533.871094 572.730469 533.371094 572.859375 532.855469 572.910156 C 532.339844 572.964844 531.828125 572.945312 531.320312 572.851562 C 530.808594 572.761719 530.324219 572.597656 529.859375 572.363281 C 529.398438 572.128906 528.976562 571.832031 528.597656 571.480469 L 491.910156 538.445312 C 486.8125 533.851562 494.351562 526.359375 499.433594 530.921875 L 518.648438 548.230469 C 515.433594 539.324219 513.011719 530.207031 511.382812 520.878906 C 509.753906 511.550781 508.941406 502.148438 508.945312 492.679688 C 508.914062 485.863281 509.3125 479.074219 510.148438 472.308594 C 510.980469 465.546875 512.238281 458.863281 513.917969 452.257812 C 515.601562 445.652344 517.695312 439.183594 520.199219 432.84375 C 522.707031 426.503906 525.601562 420.351562 528.890625 414.382812 C 532.996094 406.890625 537.957031 400.015625 543.773438 393.757812 C 542.707031 382.820312 544.339844 370.734375 548.625 357.097656 C 571.550781 284.964844 650.785156 236.53125 725.363281 249.035156 Z M 576.53125 386.621094 C 572.523438 387.402344 568.707031 388.722656 565.074219 390.585938 C 561.445312 392.453125 558.144531 394.785156 555.179688 397.589844 C 555.355469 398.511719 555.550781 399.433594 555.777344 400.324219 C 559.011719 413.558594 568.71875 424.296875 579.914062 427.046875 C 581.496094 427.40625 583.097656 427.605469 584.71875 427.648438 C 586.339844 427.691406 587.949219 427.570312 589.546875 427.292969 C 591.144531 427.015625 592.699219 426.585938 594.210938 426 C 595.726562 425.414062 597.164062 424.683594 598.53125 423.8125 C 599.628906 423.167969 600.648438 422.421875 601.59375 421.570312 C 602.539062 420.71875 603.386719 419.78125 604.140625 418.753906 C 604.890625 417.730469 605.53125 416.640625 606.0625 415.484375 C 606.59375 414.328125 607 413.128906 607.285156 411.890625 C 607.503906 410.824219 607.613281 409.746094 607.609375 408.65625 C 607.5 406.128906 606.925781 403.714844 605.894531 401.410156 C 604.859375 399.101562 603.4375 397.070312 601.621094 395.308594 C 600.007812 393.660156 598.222656 392.214844 596.273438 390.980469 C 594.320312 389.746094 592.253906 388.75 590.070312 387.996094 C 587.886719 387.242188 585.648438 386.75 583.347656 386.515625 C 581.050781 386.285156 578.757812 386.320312 576.46875 386.621094 Z M 576.53125 386.621094 " fill-opacity="1" fill-rule="nonzero"/></g><g fill="#fff5cc" fill-opacity="1"><g transform="translate(628.775015, 341.202982)"><g><path d="M 9.59375 -24.640625 C 9.75 -24.671875 10 -24.675781 10.34375 -24.65625 C 10.695312 -24.644531 11.039062 -24.59375 11.375 -24.5 C 12.144531 -24.289062 12.847656 -24.039062 13.484375 -23.75 C 14.128906 -23.457031 14.710938 -23.097656 15.234375 -22.671875 C 15.785156 -22.242188 16.140625 -21.875 16.296875 -21.5625 C 16.472656 -21.132812 16.347656 -20.785156 15.921875 -20.515625 C 15.585938 -20.328125 15.113281 -20.144531 14.5 -19.96875 C 13.394531 -19.5625 12.460938 -18.882812 11.703125 -17.9375 C 10.941406 -16.988281 10.328125 -15.984375 9.859375 -14.921875 C 9.890625 -14.921875 9.875 -14.863281 9.8125 -14.75 C 9.757812 -14.644531 9.703125 -14.515625 9.640625 -14.359375 C 9.515625 -14.085938 9.375 -13.765625 9.21875 -13.390625 C 9.070312 -13.023438 8.921875 -12.613281 8.765625 -12.15625 C 8.460938 -11.238281 8.28125 -10.613281 8.21875 -10.28125 C 8.09375 -9.664062 8.125 -8.945312 8.3125 -8.125 C 8.394531 -7.726562 8.582031 -7.414062 8.875 -7.1875 C 9.164062 -6.957031 9.503906 -6.78125 9.890625 -6.65625 C 10.273438 -6.53125 10.671875 -6.457031 11.078125 -6.4375 C 11.492188 -6.425781 11.867188 -6.421875 12.203125 -6.421875 C 13.335938 -6.421875 14.378906 -6.535156 15.328125 -6.765625 C 16.273438 -6.992188 17.253906 -7.351562 18.265625 -7.84375 C 18.421875 -7.9375 18.523438 -7.984375 18.578125 -7.984375 C 18.609375 -8.015625 18.640625 -8.03125 18.671875 -8.03125 L 18.71875 -7.75 L 18.71875 -7.4375 C 18.8125 -7.21875 18.765625 -6.800781 18.578125 -6.1875 C 18.242188 -4.96875 17.640625 -3.988281 16.765625 -3.25 C 15.898438 -2.519531 14.851562 -2.035156 13.625 -1.796875 C 13.226562 -1.703125 12.738281 -1.65625 12.15625 -1.65625 C 11.601562 -1.65625 11.078125 -1.710938 10.578125 -1.828125 C 10.078125 -1.953125 9.566406 -2.125 9.046875 -2.34375 C 7.941406 -2.925781 6.835938 -3.722656 5.734375 -4.734375 C 5.492188 -4.972656 5.179688 -5.289062 4.796875 -5.6875 C 4.410156 -6.082031 4.023438 -6.492188 3.640625 -6.921875 C 3.265625 -7.359375 2.914062 -7.789062 2.59375 -8.21875 C 2.269531 -8.644531 2.046875 -9.007812 1.921875 -9.3125 C 1.804688 -9.53125 1.75 -9.820312 1.75 -10.1875 C 1.6875 -12.113281 1.972656 -14.023438 2.609375 -15.921875 C 3.066406 -17.265625 3.617188 -18.539062 4.265625 -19.75 C 4.910156 -20.957031 5.769531 -22.050781 6.84375 -23.03125 C 7.820312 -23.925781 8.738281 -24.460938 9.59375 -24.640625 Z M 9.59375 -24.640625 "/></g></g></g><g fill="#fff5cc" fill-opacity="1"><g transform="translate(649.104562, 341.202982)"><g><path d="M 4.078125 -26.25 C 4.941406 -25.820312 5.660156 -25.265625 6.234375 -24.578125 C 6.816406 -23.890625 7.109375 -23.054688 7.109375 -22.078125 C 7.109375 -21.554688 7.046875 -21.003906 6.921875 -20.421875 C 6.804688 -19.835938 6.6875 -19.15625 6.5625 -18.375 C 6.4375 -17.59375 6.300781 -16.726562 6.15625 -15.78125 C 5.84375 -13.582031 5.617188 -11.609375 5.484375 -9.859375 C 5.347656 -8.117188 5.3125 -6.5625 5.375 -5.1875 L 5.421875 -4.125 L 5.6875 -4.125 C 6.144531 -4.15625 6.648438 -4.359375 7.203125 -4.734375 C 7.453125 -4.816406 7.679688 -4.925781 7.890625 -5.0625 C 8.109375 -5.207031 8.21875 -5.265625 8.21875 -5.234375 C 8.21875 -5.109375 8.1875 -4.9375 8.125 -4.71875 C 8.0625 -4.507812 7.984375 -4.28125 7.890625 -4.03125 C 7.796875 -3.789062 7.703125 -3.554688 7.609375 -3.328125 C 7.523438 -3.097656 7.453125 -2.9375 7.390625 -2.84375 C 7.078125 -2.164062 6.675781 -1.707031 6.1875 -1.46875 C 6.007812 -1.34375 5.828125 -1.296875 5.640625 -1.328125 C 5.367188 -1.328125 5.03125 -1.488281 4.625 -1.8125 C 4.226562 -2.132812 3.835938 -2.5 3.453125 -2.90625 C 3.078125 -3.320312 2.726562 -3.742188 2.40625 -4.171875 C 2.082031 -4.597656 1.863281 -4.921875 1.75 -5.140625 L 1.609375 -5.421875 L 1.609375 -7.578125 C 1.609375 -10.566406 1.882812 -13.945312 2.4375 -17.71875 C 2.5 -18.414062 2.570312 -19.140625 2.65625 -19.890625 C 2.75 -20.640625 2.859375 -21.367188 2.984375 -22.078125 C 3.015625 -22.347656 3.015625 -22.546875 2.984375 -22.671875 C 2.953125 -22.765625 2.890625 -22.851562 2.796875 -22.9375 C 2.734375 -22.96875 2.578125 -23.003906 2.328125 -23.046875 C 2.085938 -23.097656 1.910156 -23.15625 1.796875 -23.21875 C 1.578125 -23.25 1.4375 -23.414062 1.375 -23.71875 C 1.40625 -23.8125 1.421875 -23.894531 1.421875 -23.96875 C 1.421875 -24.050781 1.453125 -24.140625 1.515625 -24.234375 C 1.578125 -24.296875 1.695312 -24.425781 1.875 -24.625 C 2.0625 -24.820312 2.320312 -25.085938 2.65625 -25.421875 L 3.4375 -26.203125 C 3.5625 -26.296875 3.65625 -26.375 3.71875 -26.4375 C 3.75 -26.4375 3.78125 -26.421875 3.8125 -26.390625 C 3.90625 -26.390625 3.992188 -26.34375 4.078125 -26.25 Z M 4.078125 -26.25 "/></g></g></g><g fill="#fff5cc" fill-opacity="1"><g transform="translate(657.456654, 341.202982)"><g><path d="M 3.71875 -18.671875 C 3.78125 -18.703125 3.878906 -18.707031 4.015625 -18.6875 C 4.148438 -18.675781 4.328125 -18.613281 4.546875 -18.5 C 5.765625 -17.820312 6.632812 -16.960938 7.15625 -15.921875 C 7.488281 -15.222656 7.550781 -14.472656 7.34375 -13.671875 C 7.125 -12.785156 6.976562 -11.609375 6.90625 -10.140625 C 6.832031 -8.671875 6.8125 -7.1875 6.84375 -5.6875 L 6.84375 -2.84375 C 6.84375 -2.050781 6.828125 -1.625 6.796875 -1.5625 C 6.578125 -1.132812 6.222656 -1.085938 5.734375 -1.421875 C 5.398438 -1.671875 5.007812 -2.023438 4.5625 -2.484375 C 4.125 -2.941406 3.78125 -3.335938 3.53125 -3.671875 C 3.101562 -4.285156 2.820312 -4.765625 2.6875 -5.109375 C 2.550781 -5.460938 2.484375 -5.960938 2.484375 -6.609375 C 2.484375 -7.097656 2.519531 -7.90625 2.59375 -9.03125 C 2.664062 -10.164062 2.78125 -11.363281 2.9375 -12.625 C 3 -13.226562 3.050781 -13.710938 3.09375 -14.078125 C 3.144531 -14.453125 3.171875 -14.671875 3.171875 -14.734375 C 3.171875 -14.941406 3 -15.140625 2.65625 -15.328125 C 2.351562 -15.453125 2.050781 -15.515625 1.75 -15.515625 C 1.46875 -15.515625 1.296875 -15.632812 1.234375 -15.875 C 1.234375 -16 1.347656 -16.195312 1.578125 -16.46875 C 1.804688 -16.75 2.054688 -17.039062 2.328125 -17.34375 C 2.609375 -17.65625 2.882812 -17.9375 3.15625 -18.1875 C 3.4375 -18.445312 3.625 -18.609375 3.71875 -18.671875 Z M 3.484375 -25.515625 C 3.578125 -25.546875 3.734375 -25.5625 3.953125 -25.5625 C 4.347656 -25.5625 4.710938 -25.453125 5.046875 -25.234375 C 5.441406 -24.992188 5.78125 -24.675781 6.0625 -24.28125 C 6.332031 -23.851562 6.484375 -23.46875 6.515625 -23.125 C 6.671875 -22.632812 6.671875 -22.175781 6.515625 -21.75 C 6.359375 -21.082031 6.050781 -20.640625 5.59375 -20.421875 C 5.414062 -20.359375 5.210938 -20.328125 4.984375 -20.328125 C 4.753906 -20.328125 4.578125 -20.34375 4.453125 -20.375 C 3.960938 -20.625 3.457031 -21.019531 2.9375 -21.5625 C 2.414062 -22.113281 2.125 -22.664062 2.0625 -23.21875 C 2 -23.738281 2.101562 -24.210938 2.375 -24.640625 C 2.65625 -25.066406 3.023438 -25.359375 3.484375 -25.515625 Z M 3.484375 -25.515625 "/></g></g></g><g fill="#fff5cc" fill-opacity="1"><g transform="translate(666.497108, 341.202982)"><g><path d="M 6.375 -18.453125 C 6.5625 -18.484375 6.898438 -18.5 7.390625 -18.5 C 7.878906 -18.5 8.226562 -18.484375 8.4375 -18.453125 C 9.632812 -18.265625 10.597656 -17.910156 11.328125 -17.390625 C 11.609375 -17.179688 11.921875 -16.914062 12.265625 -16.59375 C 12.617188 -16.269531 12.84375 -16.03125 12.9375 -15.875 C 13.0625 -15.570312 13.0625 -15.328125 12.9375 -15.140625 C 12.84375 -14.992188 12.664062 -14.894531 12.40625 -14.84375 C 12.144531 -14.800781 11.847656 -14.75 11.515625 -14.6875 C 9.648438 -14.375 8.289062 -13.378906 7.4375 -11.703125 C 7.28125 -11.484375 7.203125 -11.359375 7.203125 -11.328125 C 7.203125 -11.304688 7.203125 -11.28125 7.203125 -11.25 C 7.078125 -11.21875 6.816406 -10.5 6.421875 -9.09375 C 6.179688 -8.195312 6.078125 -7.660156 6.109375 -7.484375 C 6.160156 -7.085938 6.492188 -6.8125 7.109375 -6.65625 C 7.328125 -6.625 7.722656 -6.609375 8.296875 -6.609375 C 8.878906 -6.609375 9.359375 -6.625 9.734375 -6.65625 C 10.648438 -6.75 11.320312 -6.835938 11.75 -6.921875 C 12.9375 -7.265625 13.898438 -7.585938 14.640625 -7.890625 L 15.046875 -8.125 L 15.140625 -7.984375 C 15.203125 -7.890625 15.203125 -7.722656 15.140625 -7.484375 C 15.109375 -7.359375 15.082031 -7.226562 15.0625 -7.09375 C 15.050781 -6.957031 15.015625 -6.8125 14.953125 -6.65625 C 14.585938 -5.582031 14.046875 -4.585938 13.328125 -3.671875 C 12.609375 -2.753906 11.671875 -2.171875 10.515625 -1.921875 C 10.234375 -1.835938 9.816406 -1.796875 9.265625 -1.796875 C 8.535156 -1.796875 7.867188 -1.898438 7.265625 -2.109375 C 6.671875 -2.328125 6.070312 -2.695312 5.46875 -3.21875 C 5.09375 -3.488281 4.675781 -3.859375 4.21875 -4.328125 C 3.757812 -4.804688 3.238281 -5.382812 2.65625 -6.0625 C 2.320312 -6.488281 2.054688 -6.816406 1.859375 -7.046875 C 1.660156 -7.273438 1.515625 -7.457031 1.421875 -7.59375 C 1.328125 -7.726562 1.265625 -7.859375 1.234375 -7.984375 C 1.203125 -8.109375 1.15625 -8.257812 1.09375 -8.4375 C 0.976562 -8.957031 0.976562 -9.738281 1.09375 -10.78125 C 1.1875 -11.488281 1.367188 -12.253906 1.640625 -13.078125 C 1.921875 -13.898438 2.28125 -14.675781 2.71875 -15.40625 C 3.164062 -16.144531 3.695312 -16.789062 4.3125 -17.34375 C 4.925781 -17.894531 5.613281 -18.265625 6.375 -18.453125 Z M 6.375 -18.453125 "/></g></g></g><g fill="#fff5cc" fill-opacity="1"><g transform="translate(682.558833, 341.202982)"><g><path d="M 3.171875 -26.25 C 3.171875 -26.28125 3.273438 -26.28125 3.484375 -26.25 C 3.941406 -26.25 4.476562 -25.820312 5.09375 -24.96875 C 5.394531 -24.570312 5.664062 -24.164062 5.90625 -23.75 C 6.15625 -23.332031 6.375 -22.84375 6.5625 -22.28125 C 6.75 -21.71875 6.894531 -21.0625 7 -20.3125 C 7.101562 -19.5625 7.171875 -18.648438 7.203125 -17.578125 C 7.234375 -16.753906 7.238281 -16.125 7.21875 -15.6875 C 7.207031 -15.257812 7.25 -15.046875 7.34375 -15.046875 C 7.4375 -15.046875 7.617188 -15.25 7.890625 -15.65625 C 7.953125 -15.707031 8.015625 -15.78125 8.078125 -15.875 C 8.140625 -15.9375 8.226562 -16.019531 8.34375 -16.125 C 8.46875 -16.238281 8.609375 -16.367188 8.765625 -16.515625 C 9.035156 -16.765625 9.300781 -17.019531 9.5625 -17.28125 C 9.820312 -17.539062 10.054688 -17.785156 10.265625 -18.015625 C 10.484375 -18.242188 10.671875 -18.425781 10.828125 -18.5625 C 10.984375 -18.695312 11.0625 -18.765625 11.0625 -18.765625 C 11.09375 -18.734375 11.125 -18.71875 11.15625 -18.71875 C 11.1875 -18.6875 11.21875 -18.671875 11.25 -18.671875 C 11.28125 -18.671875 11.320312 -18.65625 11.375 -18.625 C 11.988281 -18.289062 12.570312 -17.816406 13.125 -17.203125 C 13.675781 -16.597656 13.953125 -15.910156 13.953125 -15.140625 C 13.953125 -14.585938 13.796875 -14.097656 13.484375 -13.671875 C 13.398438 -13.546875 13.25 -13.359375 13.03125 -13.109375 C 12.820312 -12.867188 12.570312 -12.597656 12.28125 -12.296875 C 11.988281 -11.992188 11.671875 -11.671875 11.328125 -11.328125 C 10.992188 -10.992188 10.660156 -10.675781 10.328125 -10.375 C 10.109375 -10.1875 9.929688 -10.023438 9.796875 -9.890625 C 9.660156 -9.753906 9.5625 -9.65625 9.5 -9.59375 L 9.3125 -9.359375 L 9.453125 -9.046875 C 9.640625 -8.734375 9.875 -8.414062 10.15625 -8.09375 C 10.445312 -7.78125 10.734375 -7.578125 11.015625 -7.484375 C 11.171875 -7.421875 12.148438 -7.390625 13.953125 -7.390625 C 15.660156 -7.390625 16.53125 -7.375 16.5625 -7.34375 C 16.59375 -7.3125 16.578125 -7.1875 16.515625 -6.96875 C 16.453125 -6.757812 16.375 -6.507812 16.28125 -6.21875 C 16.195312 -5.925781 16.082031 -5.601562 15.9375 -5.25 C 15.800781 -4.90625 15.675781 -4.578125 15.5625 -4.265625 C 15.21875 -3.535156 14.894531 -2.976562 14.59375 -2.59375 C 14.289062 -2.207031 14 -1.953125 13.71875 -1.828125 C 13.257812 -1.679688 12.785156 -1.789062 12.296875 -2.15625 C 11.347656 -2.800781 10.035156 -4.390625 8.359375 -6.921875 C 8.015625 -7.441406 7.757812 -7.785156 7.59375 -7.953125 C 7.425781 -8.128906 7.296875 -8.21875 7.203125 -8.21875 C 6.960938 -8.1875 6.8125 -8.03125 6.75 -7.75 C 6.59375 -7.113281 6.453125 -5.953125 6.328125 -4.265625 C 6.210938 -3.046875 6.046875 -2.207031 5.828125 -1.75 L 5.6875 -1.46875 L 5.46875 -1.515625 C 5.28125 -1.515625 5 -1.582031 4.625 -1.71875 C 4.257812 -1.851562 3.957031 -2 3.71875 -2.15625 C 3.5 -2.28125 3.265625 -2.457031 3.015625 -2.6875 C 2.773438 -2.914062 2.539062 -3.164062 2.3125 -3.4375 C 2.082031 -3.71875 1.882812 -4.007812 1.71875 -4.3125 C 1.550781 -4.613281 1.4375 -4.875 1.375 -5.09375 C 1.375 -5.25 1.390625 -5.445312 1.421875 -5.6875 C 1.453125 -5.9375 1.53125 -6.242188 1.65625 -6.609375 C 1.769531 -7.035156 1.878906 -7.554688 1.984375 -8.171875 C 2.097656 -8.785156 2.191406 -9.410156 2.265625 -10.046875 C 2.347656 -10.691406 2.414062 -11.3125 2.46875 -11.90625 C 2.53125 -12.5 2.578125 -13 2.609375 -13.40625 C 2.953125 -15.9375 3.160156 -18.035156 3.234375 -19.703125 C 3.304688 -21.378906 3.328125 -22.535156 3.296875 -23.171875 C 3.273438 -23.484375 3.238281 -23.78125 3.1875 -24.0625 C 3.144531 -24.351562 3.09375 -24.609375 3.03125 -24.828125 C 2.84375 -25.410156 2.890625 -25.882812 3.171875 -26.25 Z M 3.171875 -26.25 "/></g></g></g><g fill="#fff5cc" fill-opacity="1"><g transform="translate(699.584254, 341.202982)"><g/></g></g><g fill="#fff5cc" fill-opacity="1"><g transform="translate(712.433633, 341.202982)"><g><path d="M 6.375 -22.578125 C 6.375 -22.878906 6.515625 -23.03125 6.796875 -23.03125 C 7.003906 -23.03125 7.242188 -22.929688 7.515625 -22.734375 C 7.796875 -22.535156 8.066406 -22.304688 8.328125 -22.046875 C 8.585938 -21.785156 8.820312 -21.515625 9.03125 -21.234375 C 9.25 -20.960938 9.40625 -20.738281 9.5 -20.5625 C 9.894531 -19.726562 10.109375 -18.820312 10.140625 -17.84375 L 10.1875 -17.390625 L 10.6875 -17.25 C 11.664062 -16.976562 12.585938 -16.84375 13.453125 -16.84375 C 14.335938 -16.84375 15.238281 -16.914062 16.15625 -17.0625 C 17.070312 -17.21875 17.972656 -17.390625 18.859375 -17.578125 C 19.253906 -17.671875 19.457031 -17.71875 19.46875 -17.71875 C 19.488281 -17.71875 19.378906 -17.546875 19.140625 -17.203125 C 18.859375 -16.867188 18.570312 -16.492188 18.28125 -16.078125 C 17.988281 -15.671875 17.753906 -15.34375 17.578125 -15.09375 C 17.054688 -14.394531 16.492188 -13.851562 15.890625 -13.46875 C 15.296875 -13.082031 14.554688 -12.890625 13.671875 -12.890625 C 12.878906 -12.890625 12.039062 -13.085938 11.15625 -13.484375 C 10.695312 -13.640625 10.335938 -13.769531 10.078125 -13.875 C 9.816406 -13.988281 9.65625 -14.046875 9.59375 -14.046875 C 9.53125 -14.046875 9.5 -13.035156 9.5 -11.015625 L 9.5 -6.75 L 9.59375 -6.46875 C 9.6875 -6.226562 9.835938 -6.109375 10.046875 -6.109375 C 10.171875 -6.109375 10.316406 -6.117188 10.484375 -6.140625 C 10.648438 -6.171875 10.859375 -6.21875 11.109375 -6.28125 C 11.628906 -6.34375 12.046875 -6.390625 12.359375 -6.421875 C 12.679688 -6.453125 12.90625 -6.46875 13.03125 -6.46875 C 13.0625 -6.46875 13.0625 -6.300781 13.03125 -5.96875 C 13 -5.050781 12.773438 -4.191406 12.359375 -3.390625 C 11.953125 -2.597656 11.550781 -1.988281 11.15625 -1.5625 C 10.84375 -1.25 10.472656 -1.09375 10.046875 -1.09375 C 9.710938 -1.09375 9.484375 -1.140625 9.359375 -1.234375 C 9.296875 -1.296875 9.210938 -1.363281 9.109375 -1.4375 C 9.003906 -1.519531 8.875 -1.59375 8.71875 -1.65625 C 8.5 -1.769531 8.238281 -1.976562 7.9375 -2.28125 C 7.632812 -2.59375 7.335938 -2.929688 7.046875 -3.296875 C 6.753906 -3.671875 6.507812 -4.015625 6.3125 -4.328125 C 6.113281 -4.648438 5.984375 -4.90625 5.921875 -5.09375 L 5.921875 -7.390625 C 5.921875 -7.722656 5.921875 -8.132812 5.921875 -8.625 C 5.921875 -9.113281 5.925781 -9.585938 5.9375 -10.046875 C 5.957031 -10.503906 5.972656 -10.925781 5.984375 -11.3125 C 6.003906 -11.695312 6.015625 -11.945312 6.015625 -12.0625 C 6.046875 -12.3125 6.066406 -12.554688 6.078125 -12.796875 C 6.097656 -13.046875 6.109375 -13.289062 6.109375 -13.53125 C 6.109375 -14.019531 6.082031 -14.332031 6.03125 -14.46875 C 5.988281 -14.613281 5.859375 -14.6875 5.640625 -14.6875 C 5.429688 -14.6875 5.195312 -14.613281 4.9375 -14.46875 C 4.675781 -14.332031 4.421875 -14.164062 4.171875 -13.96875 C 3.929688 -13.769531 3.710938 -13.5625 3.515625 -13.34375 C 3.316406 -13.132812 3.140625 -12.9375 2.984375 -12.75 C 2.703125 -12.382812 2.472656 -12.203125 2.296875 -12.203125 C 2.140625 -12.203125 1.976562 -12.289062 1.8125 -12.46875 C 1.644531 -12.65625 1.363281 -13.023438 0.96875 -13.578125 C 0.445312 -14.347656 0.128906 -14.898438 0.015625 -15.234375 C -0.0859375 -15.566406 -0.0625 -15.859375 0.09375 -16.109375 C 0.15625 -16.171875 0.269531 -16.257812 0.4375 -16.375 C 0.601562 -16.5 0.820312 -16.6875 1.09375 -16.9375 C 1.375 -17.175781 1.628906 -17.378906 1.859375 -17.546875 C 2.085938 -17.722656 2.320312 -17.867188 2.5625 -17.984375 L 3.171875 -18.265625 L 3.171875 -18.546875 C 3.171875 -18.597656 3.175781 -18.660156 3.1875 -18.734375 C 3.207031 -18.816406 3.203125 -18.921875 3.171875 -19.046875 L 3.171875 -19.359375 C 3.234375 -19.304688 3.304688 -19.25 3.390625 -19.1875 C 3.453125 -19.125 3.53125 -19.046875 3.625 -18.953125 C 3.71875 -18.859375 3.796875 -18.734375 3.859375 -18.578125 L 4.078125 -18.171875 L 5.140625 -18.171875 C 5.597656 -18.171875 5.914062 -18.15625 6.09375 -18.125 C 6.28125 -18.09375 6.375 -18.09375 6.375 -18.125 C 6.375 -18.15625 6.375 -18.207031 6.375 -18.28125 C 6.375 -18.363281 6.390625 -18.476562 6.421875 -18.625 C 6.453125 -18.78125 6.472656 -18.941406 6.484375 -19.109375 C 6.503906 -19.273438 6.546875 -19.484375 6.609375 -19.734375 C 6.671875 -19.972656 6.707031 -20.203125 6.71875 -20.421875 C 6.738281 -20.640625 6.765625 -20.851562 6.796875 -21.0625 L 6.796875 -21.609375 L 6.5625 -22.03125 C 6.4375 -22.238281 6.375 -22.421875 6.375 -22.578125 Z M 6.375 -22.578125 "/></g></g></g><g fill="#fff5cc" fill-opacity="1"><g transform="translate(730.881669, 341.202982)"><g><path d="M 8.71875 -18.8125 C 8.90625 -18.875 9.082031 -18.90625 9.25 -18.90625 C 9.414062 -18.90625 9.632812 -18.859375 9.90625 -18.765625 C 10.1875 -18.671875 10.539062 -18.53125 10.96875 -18.34375 C 11.394531 -18.164062 11.945312 -17.910156 12.625 -17.578125 C 13.226562 -17.265625 13.765625 -16.976562 14.234375 -16.71875 C 14.710938 -16.46875 15.09375 -16.21875 15.375 -15.96875 C 16.625 -14.925781 17.191406 -13.195312 17.078125 -10.78125 C 17.015625 -9.3125 16.648438 -7.890625 15.984375 -6.515625 C 15.328125 -5.140625 14.46875 -3.945312 13.40625 -2.9375 C 13.28125 -2.84375 13.1875 -2.742188 13.125 -2.640625 C 13.0625 -2.535156 12.984375 -2.4375 12.890625 -2.34375 C 12.585938 -2.03125 12.082031 -1.816406 11.375 -1.703125 C 11.195312 -1.640625 11 -1.59375 10.78125 -1.5625 C 10.570312 -1.53125 10.375 -1.53125 10.1875 -1.5625 C 9.394531 -1.625 8.507812 -1.859375 7.53125 -2.265625 C 6.550781 -2.679688 5.613281 -3.21875 4.71875 -3.875 C 3.832031 -4.53125 3.066406 -5.269531 2.421875 -6.09375 C 1.785156 -6.925781 1.390625 -7.769531 1.234375 -8.625 C 1.117188 -9.425781 1.160156 -10.320312 1.359375 -11.3125 C 1.554688 -12.300781 1.835938 -13.332031 2.203125 -14.40625 C 2.472656 -15.207031 2.769531 -15.773438 3.09375 -16.109375 C 3.414062 -16.441406 3.835938 -16.609375 4.359375 -16.609375 C 4.785156 -16.609375 5.289062 -16.519531 5.875 -16.34375 L 6.328125 -16.203125 L 6.65625 -16.703125 C 7.351562 -17.835938 8.039062 -18.539062 8.71875 -18.8125 Z M 10.046875 -15.828125 C 9.648438 -15.890625 9.238281 -15.644531 8.8125 -15.09375 C 8.226562 -14.394531 7.796875 -13.613281 7.515625 -12.75 C 7.242188 -11.894531 7.078125 -10.992188 7.015625 -10.046875 C 6.929688 -8.453125 7.132812 -7.15625 7.625 -6.15625 C 7.800781 -5.71875 8.054688 -5.5 8.390625 -5.5 C 9.003906 -5.445312 9.453125 -5.601562 9.734375 -5.96875 C 10.035156 -6.332031 10.476562 -7.25 11.0625 -8.71875 C 11.269531 -9.238281 11.421875 -9.789062 11.515625 -10.375 C 11.609375 -10.957031 11.65625 -11.53125 11.65625 -12.09375 C 11.65625 -12.65625 11.613281 -13.179688 11.53125 -13.671875 C 11.457031 -14.160156 11.332031 -14.585938 11.15625 -14.953125 C 11 -15.296875 10.8125 -15.523438 10.59375 -15.640625 C 10.382812 -15.765625 10.203125 -15.828125 10.046875 -15.828125 Z M 10.046875 -15.828125 "/></g></g></g><g fill="#fff5cc" fill-opacity="1"><g transform="translate(749.054359, 341.202982)"><g/></g></g><g fill="#fff5cc" fill-opacity="1"><g transform="translate(761.903739, 341.202982)"><g><path d="M 8.71875 -18.8125 C 8.90625 -18.875 9.082031 -18.90625 9.25 -18.90625 C 9.414062 -18.90625 9.632812 -18.859375 9.90625 -18.765625 C 10.1875 -18.671875 10.539062 -18.53125 10.96875 -18.34375 C 11.394531 -18.164062 11.945312 -17.910156 12.625 -17.578125 C 13.226562 -17.265625 13.765625 -16.976562 14.234375 -16.71875 C 14.710938 -16.46875 15.09375 -16.21875 15.375 -15.96875 C 16.625 -14.925781 17.191406 -13.195312 17.078125 -10.78125 C 17.015625 -9.3125 16.648438 -7.890625 15.984375 -6.515625 C 15.328125 -5.140625 14.46875 -3.945312 13.40625 -2.9375 C 13.28125 -2.84375 13.1875 -2.742188 13.125 -2.640625 C 13.0625 -2.535156 12.984375 -2.4375 12.890625 -2.34375 C 12.585938 -2.03125 12.082031 -1.816406 11.375 -1.703125 C 11.195312 -1.640625 11 -1.59375 10.78125 -1.5625 C 10.570312 -1.53125 10.375 -1.53125 10.1875 -1.5625 C 9.394531 -1.625 8.507812 -1.859375 7.53125 -2.265625 C 6.550781 -2.679688 5.613281 -3.21875 4.71875 -3.875 C 3.832031 -4.53125 3.066406 -5.269531 2.421875 -6.09375 C 1.785156 -6.925781 1.390625 -7.769531 1.234375 -8.625 C 1.117188 -9.425781 1.160156 -10.320312 1.359375 -11.3125 C 1.554688 -12.300781 1.835938 -13.332031 2.203125 -14.40625 C 2.472656 -15.207031 2.769531 -15.773438 3.09375 -16.109375 C 3.414062 -16.441406 3.835938 -16.609375 4.359375 -16.609375 C 4.785156 -16.609375 5.289062 -16.519531 5.875 -16.34375 L 6.328125 -16.203125 L 6.65625 -16.703125 C 7.351562 -17.835938 8.039062 -18.539062 8.71875 -18.8125 Z M 10.046875 -15.828125 C 9.648438 -15.890625 9.238281 -15.644531 8.8125 -15.09375 C 8.226562 -14.394531 7.796875 -13.613281 7.515625 -12.75 C 7.242188 -11.894531 7.078125 -10.992188 7.015625 -10.046875 C 6.929688 -8.453125 7.132812 -7.15625 7.625 -6.15625 C 7.800781 -5.71875 8.054688 -5.5 8.390625 -5.5 C 9.003906 -5.445312 9.453125 -5.601562 9.734375 -5.96875 C 10.035156 -6.332031 10.476562 -7.25 11.0625 -8.71875 C 11.269531 -9.238281 11.421875 -9.789062 11.515625 -10.375 C 11.609375 -10.957031 11.65625 -11.53125 11.65625 -12.09375 C 11.65625 -12.65625 11.613281 -13.179688 11.53125 -13.671875 C 11.457031 -14.160156 11.332031 -14.585938 11.15625 -14.953125 C 11 -15.296875 10.8125 -15.523438 10.59375 -15.640625 C 10.382812 -15.765625 10.203125 -15.828125 10.046875 -15.828125 Z M 10.046875 -15.828125 "/></g></g></g><g fill="#fff5cc" fill-opacity="1"><g transform="translate(780.076429, 341.202982)"><g><path d="M 3.671875 -19.046875 C 3.765625 -19.140625 3.828125 -19.1875 3.859375 -19.1875 C 4.035156 -19.1875 4.429688 -18.847656 5.046875 -18.171875 C 5.328125 -17.835938 5.570312 -17.425781 5.78125 -16.9375 C 6 -16.445312 6.132812 -15.941406 6.1875 -15.421875 C 6.25 -14.992188 6.328125 -14.78125 6.421875 -14.78125 C 6.484375 -14.78125 6.691406 -14.984375 7.046875 -15.390625 C 7.398438 -15.804688 7.925781 -16.457031 8.625 -17.34375 C 8.6875 -17.34375 8.8125 -17.46875 9 -17.71875 C 9.632812 -18.507812 10.015625 -18.90625 10.140625 -18.90625 C 10.171875 -18.90625 10.1875 -18.875 10.1875 -18.8125 C 10.34375 -18.78125 10.535156 -18.648438 10.765625 -18.421875 C 10.992188 -18.191406 11.289062 -17.878906 11.65625 -17.484375 C 12.300781 -16.835938 12.859375 -16.109375 13.328125 -15.296875 C 13.804688 -14.492188 14.203125 -13.640625 14.515625 -12.734375 C 14.835938 -11.828125 15.082031 -10.90625 15.25 -9.96875 C 15.425781 -9.039062 15.515625 -8.132812 15.515625 -7.25 C 15.515625 -6.726562 15.457031 -6.253906 15.34375 -5.828125 C 15.238281 -5.398438 15.019531 -4.988281 14.6875 -4.59375 C 13.375 -2.90625 11.890625 -2.0625 10.234375 -2.0625 C 9.773438 -2.0625 9.320312 -2.109375 8.875 -2.203125 C 8.4375 -2.296875 8.003906 -2.414062 7.578125 -2.5625 C 7.328125 -2.625 7.132812 -2.671875 7 -2.703125 C 6.863281 -2.734375 6.78125 -2.75 6.75 -2.75 C 6.5625 -2.75 6.421875 -2.46875 6.328125 -1.90625 C 6.234375 -1.34375 6.1875 -0.34375 6.1875 1.09375 L 6.1875 5.28125 L 5.921875 5.28125 C 5.398438 5.28125 4.953125 5.09375 4.578125 4.71875 C 4.210938 4.351562 3.878906 4.003906 3.578125 3.671875 C 3.515625 3.609375 3.367188 3.4375 3.140625 3.15625 C 2.910156 2.882812 2.671875 2.601562 2.421875 2.3125 C 2.179688 2.019531 1.953125 1.738281 1.734375 1.46875 C 1.523438 1.195312 1.40625 1.03125 1.375 0.96875 C 1.28125 0.8125 1.222656 0.609375 1.203125 0.359375 C 1.191406 0.117188 1.171875 -0.179688 1.140625 -0.546875 C 1.109375 -2.109375 1.328125 -3.929688 1.796875 -6.015625 C 1.910156 -6.597656 2.019531 -7.207031 2.125 -7.84375 C 2.238281 -8.488281 2.375 -9.191406 2.53125 -9.953125 C 2.613281 -10.566406 2.734375 -11.132812 2.890625 -11.65625 C 3.015625 -12.175781 3.113281 -12.632812 3.1875 -13.03125 C 3.257812 -13.425781 3.316406 -13.800781 3.359375 -14.15625 C 3.410156 -14.507812 3.441406 -14.847656 3.453125 -15.171875 C 3.472656 -15.492188 3.484375 -15.835938 3.484375 -16.203125 C 3.453125 -16.535156 3.4375 -16.773438 3.4375 -16.921875 C 3.4375 -17.078125 3.421875 -17.203125 3.390625 -17.296875 C 3.328125 -17.515625 3.066406 -17.710938 2.609375 -17.890625 C 2.460938 -17.984375 2.390625 -18.03125 2.390625 -18.03125 C 2.390625 -18.125 2.816406 -18.460938 3.671875 -19.046875 Z M 10.921875 -14.09375 C 10.734375 -14.207031 10.566406 -14.265625 10.421875 -14.265625 C 10.140625 -14.265625 9.832031 -14.1875 9.5 -14.03125 C 9.164062 -13.882812 8.835938 -13.6875 8.515625 -13.4375 C 8.191406 -13.195312 7.914062 -12.929688 7.6875 -12.640625 C 7.457031 -12.347656 7.3125 -12.082031 7.25 -11.84375 C 7.1875 -11.5625 7.125 -11.179688 7.0625 -10.703125 C 7 -10.234375 6.941406 -9.695312 6.890625 -9.09375 C 6.734375 -7.707031 6.703125 -6.878906 6.796875 -6.609375 C 6.859375 -6.359375 6.945312 -6.1875 7.0625 -6.09375 C 7.1875 -6.007812 7.3125 -5.984375 7.4375 -6.015625 C 8.226562 -6.222656 8.90625 -6.6875 9.46875 -7.40625 C 10.039062 -8.125 10.507812 -8.804688 10.875 -9.453125 C 11.03125 -9.703125 11.144531 -9.910156 11.21875 -10.078125 C 11.289062 -10.242188 11.34375 -10.398438 11.375 -10.546875 C 11.40625 -10.703125 11.425781 -10.863281 11.4375 -11.03125 C 11.457031 -11.207031 11.46875 -11.429688 11.46875 -11.703125 C 11.5 -12.316406 11.476562 -12.820312 11.40625 -13.21875 C 11.332031 -13.613281 11.171875 -13.90625 10.921875 -14.09375 Z M 10.921875 -14.09375 "/></g></g></g><g fill="#fff5cc" fill-opacity="1"><g transform="translate(796.505269, 341.202982)"><g><path d="M 8.125 -18.765625 C 8.425781 -18.796875 8.835938 -18.734375 9.359375 -18.578125 C 10.003906 -18.367188 10.769531 -17.941406 11.65625 -17.296875 C 12.082031 -16.898438 12.5625 -16.457031 13.09375 -15.96875 C 13.632812 -15.476562 14.007812 -15.066406 14.21875 -14.734375 C 14.28125 -14.671875 14.3125 -14.613281 14.3125 -14.5625 C 14.3125 -14.519531 14.328125 -14.484375 14.359375 -14.453125 C 14.578125 -14.148438 14.703125 -13.753906 14.734375 -13.265625 C 14.765625 -12.679688 14.425781 -12.007812 13.71875 -11.25 C 12.582031 -10.144531 11.128906 -9.207031 9.359375 -8.4375 C 9.054688 -8.320312 8.75 -8.1875 8.4375 -8.03125 C 7.894531 -7.757812 7.191406 -7.625 6.328125 -7.625 L 5.328125 -7.625 C 5.234375 -7.5625 5.15625 -7.4375 5.09375 -7.25 C 4.9375 -6.914062 5 -6.550781 5.28125 -6.15625 L 5.5 -5.734375 L 5.78125 -5.59375 C 6 -5.476562 6.351562 -5.421875 6.84375 -5.421875 C 7.269531 -5.421875 7.726562 -5.476562 8.21875 -5.59375 C 8.707031 -5.71875 9.210938 -5.859375 9.734375 -6.015625 C 10.097656 -6.128906 10.382812 -6.21875 10.59375 -6.28125 C 10.8125 -6.34375 10.96875 -6.390625 11.0625 -6.421875 C 11.09375 -6.453125 11.289062 -6.5625 11.65625 -6.75 C 12.90625 -7.300781 14.375 -8.050781 16.0625 -9 C 16.21875 -9.0625 16.398438 -9.144531 16.609375 -9.25 C 16.828125 -9.351562 17.023438 -9.453125 17.203125 -9.546875 C 17.390625 -9.640625 17.554688 -9.722656 17.703125 -9.796875 C 17.859375 -9.867188 17.953125 -9.90625 17.984375 -9.90625 C 18.015625 -9.820312 18.015625 -9.585938 17.984375 -9.203125 C 17.953125 -8.816406 17.921875 -8.503906 17.890625 -8.265625 C 17.804688 -7.890625 17.648438 -7.488281 17.421875 -7.0625 C 17.191406 -6.632812 16.929688 -6.195312 16.640625 -5.75 C 16.347656 -5.3125 16.03125 -4.910156 15.6875 -4.546875 C 15.351562 -4.179688 15.035156 -3.890625 14.734375 -3.671875 C 14.609375 -3.546875 14.53125 -3.484375 14.5 -3.484375 C 14.226562 -3.210938 13.875 -2.96875 13.4375 -2.75 C 13.007812 -2.539062 12.554688 -2.359375 12.078125 -2.203125 C 11.609375 -2.046875 11.128906 -1.929688 10.640625 -1.859375 C 10.148438 -1.785156 9.722656 -1.75 9.359375 -1.75 C 8.203125 -1.75 7.253906 -1.976562 6.515625 -2.4375 C 5.785156 -2.894531 5.050781 -3.566406 4.3125 -4.453125 C 4.070312 -4.722656 3.863281 -4.9375 3.6875 -5.09375 C 3.519531 -5.25 3.40625 -5.375 3.34375 -5.46875 C 2.914062 -5.894531 2.59375 -6.28125 2.375 -6.625 C 2.164062 -6.976562 2.015625 -7.3125 1.921875 -7.625 C 1.367188 -8.625 1.265625 -9.738281 1.609375 -10.96875 C 1.753906 -11.488281 2.054688 -12.175781 2.515625 -13.03125 C 2.984375 -13.882812 3.519531 -14.722656 4.125 -15.546875 C 4.738281 -16.378906 5.394531 -17.109375 6.09375 -17.734375 C 6.800781 -18.359375 7.476562 -18.703125 8.125 -18.765625 Z M 10.734375 -14.875 C 10.398438 -15.113281 10.050781 -15.097656 9.6875 -14.828125 C 9.257812 -14.609375 8.769531 -14.210938 8.21875 -13.640625 C 7.664062 -13.078125 7.234375 -12.550781 6.921875 -12.0625 C 6.679688 -11.726562 6.492188 -11.382812 6.359375 -11.03125 C 6.222656 -10.6875 6.164062 -10.515625 6.1875 -10.515625 C 6.4375 -10.515625 6.742188 -10.613281 7.109375 -10.8125 C 7.472656 -11.007812 7.851562 -11.253906 8.25 -11.546875 C 8.65625 -11.835938 9.023438 -12.140625 9.359375 -12.453125 C 9.691406 -12.773438 9.9375 -13.046875 10.09375 -13.265625 C 10.425781 -13.660156 10.671875 -14.085938 10.828125 -14.546875 L 10.875 -14.78125 Z M 10.734375 -14.875 "/></g></g></g><g fill="#fff5cc" fill-opacity="1"><g transform="translate(813.668362, 341.202982)"><g><path d="M 10.09375 -18.21875 C 10.375 -18.375 10.695312 -18.375 11.0625 -18.21875 C 11.726562 -17.96875 12.3125 -17.488281 12.8125 -16.78125 C 13.320312 -16.082031 13.625 -15.398438 13.71875 -14.734375 C 13.8125 -14.148438 13.707031 -13.171875 13.40625 -11.796875 C 13.34375 -11.273438 13.28125 -10.789062 13.21875 -10.34375 C 13.15625 -9.90625 13.09375 -9.488281 13.03125 -9.09375 C 13 -8.9375 12.984375 -8.796875 12.984375 -8.671875 C 12.984375 -8.546875 12.984375 -8.441406 12.984375 -8.359375 L 12.984375 -6.5625 C 12.984375 -6.132812 12.984375 -5.804688 12.984375 -5.578125 C 12.984375 -5.347656 12.988281 -5.1875 13 -5.09375 C 13.019531 -5 13.046875 -4.9375 13.078125 -4.90625 C 13.109375 -4.875 13.15625 -4.84375 13.21875 -4.8125 C 13.394531 -4.757812 13.609375 -4.835938 13.859375 -5.046875 C 14.648438 -5.753906 15.09375 -6.109375 15.1875 -6.109375 L 15.1875 -5.78125 C 15.15625 -5.71875 15.140625 -5.648438 15.140625 -5.578125 C 15.140625 -5.503906 15.140625 -5.4375 15.140625 -5.375 C 15.140625 -5.1875 15.101562 -4.867188 15.03125 -4.421875 C 14.957031 -3.984375 14.84375 -3.523438 14.6875 -3.046875 C 14.53125 -2.578125 14.34375 -2.15625 14.125 -1.78125 C 13.914062 -1.414062 13.691406 -1.234375 13.453125 -1.234375 C 13.390625 -1.234375 13.285156 -1.285156 13.140625 -1.390625 C 13.003906 -1.503906 12.875 -1.609375 12.75 -1.703125 C 12.238281 -2.066406 11.664062 -2.550781 11.03125 -3.15625 C 10.40625 -3.769531 9.878906 -4.414062 9.453125 -5.09375 C 9.390625 -5.25 9.34375 -5.378906 9.3125 -5.484375 C 9.28125 -5.585938 9.25 -5.707031 9.21875 -5.84375 C 9.1875 -5.988281 9.171875 -6.164062 9.171875 -6.375 C 9.171875 -6.59375 9.171875 -6.898438 9.171875 -7.296875 C 9.171875 -7.910156 9.191406 -8.46875 9.234375 -8.96875 C 9.285156 -9.476562 9.34375 -9.945312 9.40625 -10.375 C 9.4375 -10.582031 9.453125 -10.769531 9.453125 -10.9375 C 9.453125 -11.113281 9.453125 -11.273438 9.453125 -11.421875 C 9.453125 -11.765625 9.425781 -11.988281 9.375 -12.09375 C 9.332031 -12.195312 9.265625 -12.28125 9.171875 -12.34375 C 9.117188 -12.375 9.015625 -12.378906 8.859375 -12.359375 C 8.703125 -12.347656 8.578125 -12.28125 8.484375 -12.15625 C 8.398438 -12.0625 8.3125 -11.929688 8.21875 -11.765625 C 8.125 -11.597656 8.015625 -11.367188 7.890625 -11.078125 C 7.765625 -10.785156 7.617188 -10.410156 7.453125 -9.953125 C 7.285156 -9.492188 7.082031 -8.914062 6.84375 -8.21875 C 6.78125 -8.0625 6.722656 -7.914062 6.671875 -7.78125 C 6.628906 -7.644531 6.578125 -7.515625 6.515625 -7.390625 C 6.453125 -7.234375 6.367188 -6.910156 6.265625 -6.421875 C 6.160156 -5.929688 6.03125 -5.289062 5.875 -4.5 C 5.65625 -3.582031 5.492188 -2.863281 5.390625 -2.34375 C 5.285156 -1.820312 5.203125 -1.515625 5.140625 -1.421875 C 5.109375 -1.296875 4.941406 -1.265625 4.640625 -1.328125 C 4.359375 -1.390625 3.910156 -1.726562 3.296875 -2.34375 C 2.898438 -2.769531 2.535156 -3.210938 2.203125 -3.671875 C 1.867188 -4.128906 1.59375 -4.570312 1.375 -5 C 1.21875 -5.28125 1.144531 -5.546875 1.15625 -5.796875 C 1.175781 -6.054688 1.25 -6.554688 1.375 -7.296875 C 1.707031 -8.671875 2.066406 -10.046875 2.453125 -11.421875 C 2.835938 -12.796875 3.335938 -14.128906 3.953125 -15.421875 C 4.347656 -16.273438 4.59375 -16.75 4.6875 -16.84375 C 4.71875 -16.875 4.753906 -16.921875 4.796875 -16.984375 C 4.835938 -17.046875 4.875 -17.148438 4.90625 -17.296875 C 5 -17.753906 5.09375 -18.03125 5.1875 -18.125 C 5.3125 -18.1875 5.707031 -18.050781 6.375 -17.71875 C 6.53125 -17.65625 6.710938 -17.535156 6.921875 -17.359375 C 7.140625 -17.191406 7.382812 -16.988281 7.65625 -16.75 C 7.75 -16.59375 7.796875 -16.515625 7.796875 -16.515625 C 7.859375 -16.515625 8.132812 -16.757812 8.625 -17.25 C 9.207031 -17.800781 9.695312 -18.125 10.09375 -18.21875 Z M 10.09375 -18.21875 "/></g></g></g><g fill="#fff5cc" fill-opacity="1"><g transform="translate(829.500621, 341.202982)"><g/></g></g><g fill="#fff5cc" fill-opacity="1"><g transform="translate(842.350001, 341.202982)"><g><path d="M 3.71875 -18.671875 C 3.78125 -18.703125 3.878906 -18.707031 4.015625 -18.6875 C 4.148438 -18.675781 4.328125 -18.613281 4.546875 -18.5 C 5.765625 -17.820312 6.632812 -16.960938 7.15625 -15.921875 C 7.488281 -15.222656 7.550781 -14.472656 7.34375 -13.671875 C 7.125 -12.785156 6.976562 -11.609375 6.90625 -10.140625 C 6.832031 -8.671875 6.8125 -7.1875 6.84375 -5.6875 L 6.84375 -2.84375 C 6.84375 -2.050781 6.828125 -1.625 6.796875 -1.5625 C 6.578125 -1.132812 6.222656 -1.085938 5.734375 -1.421875 C 5.398438 -1.671875 5.007812 -2.023438 4.5625 -2.484375 C 4.125 -2.941406 3.78125 -3.335938 3.53125 -3.671875 C 3.101562 -4.285156 2.820312 -4.765625 2.6875 -5.109375 C 2.550781 -5.460938 2.484375 -5.960938 2.484375 -6.609375 C 2.484375 -7.097656 2.519531 -7.90625 2.59375 -9.03125 C 2.664062 -10.164062 2.78125 -11.363281 2.9375 -12.625 C 3 -13.226562 3.050781 -13.710938 3.09375 -14.078125 C 3.144531 -14.453125 3.171875 -14.671875 3.171875 -14.734375 C 3.171875 -14.941406 3 -15.140625 2.65625 -15.328125 C 2.351562 -15.453125 2.050781 -15.515625 1.75 -15.515625 C 1.46875 -15.515625 1.296875 -15.632812 1.234375 -15.875 C 1.234375 -16 1.347656 -16.195312 1.578125 -16.46875 C 1.804688 -16.75 2.054688 -17.039062 2.328125 -17.34375 C 2.609375 -17.65625 2.882812 -17.9375 3.15625 -18.1875 C 3.4375 -18.445312 3.625 -18.609375 3.71875 -18.671875 Z M 3.484375 -25.515625 C 3.578125 -25.546875 3.734375 -25.5625 3.953125 -25.5625 C 4.347656 -25.5625 4.710938 -25.453125 5.046875 -25.234375 C 5.441406 -24.992188 5.78125 -24.675781 6.0625 -24.28125 C 6.332031 -23.851562 6.484375 -23.46875 6.515625 -23.125 C 6.671875 -22.632812 6.671875 -22.175781 6.515625 -21.75 C 6.359375 -21.082031 6.050781 -20.640625 5.59375 -20.421875 C 5.414062 -20.359375 5.210938 -20.328125 4.984375 -20.328125 C 4.753906 -20.328125 4.578125 -20.34375 4.453125 -20.375 C 3.960938 -20.625 3.457031 -21.019531 2.9375 -21.5625 C 2.414062 -22.113281 2.125 -22.664062 2.0625 -23.21875 C 2 -23.738281 2.101562 -24.210938 2.375 -24.640625 C 2.65625 -25.066406 3.023438 -25.359375 3.484375 -25.515625 Z M 3.484375 -25.515625 "/></g></g></g><g fill="#fff5cc" fill-opacity="1"><g transform="translate(851.390467, 341.202982)"><g><path d="M 16.65625 -18.3125 C 17.082031 -18.3125 17.53125 -18.171875 18 -17.890625 C 18.476562 -17.617188 18.925781 -17.285156 19.34375 -16.890625 C 19.757812 -16.492188 20.117188 -16.054688 20.421875 -15.578125 C 20.722656 -15.109375 20.9375 -14.6875 21.0625 -14.3125 C 21.21875 -13.789062 21.296875 -13.242188 21.296875 -12.671875 C 21.296875 -12.421875 21.285156 -12.050781 21.265625 -11.5625 C 21.253906 -11.070312 21.203125 -10.628906 21.109375 -10.234375 C 21.046875 -9.867188 20.984375 -9.570312 20.921875 -9.34375 C 20.859375 -9.113281 20.828125 -8.96875 20.828125 -8.90625 C 20.796875 -8.6875 20.757812 -8.410156 20.71875 -8.078125 C 20.675781 -7.742188 20.644531 -7.398438 20.625 -7.046875 C 20.613281 -6.691406 20.609375 -6.367188 20.609375 -6.078125 C 20.609375 -5.785156 20.625 -5.59375 20.65625 -5.5 C 20.71875 -5.195312 20.804688 -5.015625 20.921875 -4.953125 C 21.078125 -4.828125 21.429688 -4.953125 21.984375 -5.328125 C 22.140625 -5.421875 22.269531 -5.492188 22.375 -5.546875 C 22.476562 -5.609375 22.5625 -5.671875 22.625 -5.734375 C 22.71875 -5.796875 22.796875 -5.84375 22.859375 -5.875 C 22.890625 -5.84375 22.894531 -5.671875 22.875 -5.359375 C 22.863281 -5.054688 22.84375 -4.816406 22.8125 -4.640625 C 22.71875 -3.960938 22.578125 -3.363281 22.390625 -2.84375 C 22.273438 -2.445312 22.15625 -2.15625 22.03125 -1.96875 C 21.96875 -1.90625 21.9375 -1.847656 21.9375 -1.796875 C 21.8125 -1.609375 21.6875 -1.453125 21.5625 -1.328125 C 21.351562 -1.171875 21.109375 -1.15625 20.828125 -1.28125 C 20.617188 -1.40625 20.421875 -1.515625 20.234375 -1.609375 C 20.054688 -1.703125 19.84375 -1.820312 19.59375 -1.96875 C 19.40625 -2.15625 19.179688 -2.394531 18.921875 -2.6875 C 18.671875 -2.976562 18.40625 -3.289062 18.125 -3.625 C 17.851562 -3.957031 17.601562 -4.285156 17.375 -4.609375 C 17.144531 -4.929688 16.984375 -5.203125 16.890625 -5.421875 C 16.734375 -5.722656 16.640625 -6.09375 16.609375 -6.53125 C 16.578125 -6.976562 16.5625 -7.570312 16.5625 -8.3125 C 16.59375 -9.226562 16.640625 -9.976562 16.703125 -10.5625 C 16.765625 -10.988281 16.84375 -11.519531 16.9375 -12.15625 C 17.03125 -12.800781 17.132812 -13.398438 17.25 -13.953125 C 17.34375 -14.472656 17.390625 -14.851562 17.390625 -15.09375 L 17.390625 -15.375 L 17.25 -15.375 C 17.101562 -15.34375 16.90625 -15.257812 16.65625 -15.125 C 16.414062 -14.988281 16.171875 -14.816406 15.921875 -14.609375 C 15.679688 -14.410156 15.453125 -14.21875 15.234375 -14.03125 C 15.023438 -13.851562 14.859375 -13.703125 14.734375 -13.578125 C 14.546875 -13.335938 14.375 -12.789062 14.21875 -11.9375 C 14.164062 -11.476562 14.113281 -10.960938 14.0625 -10.390625 C 14.019531 -9.828125 13.984375 -9.242188 13.953125 -8.640625 C 13.921875 -8.046875 13.890625 -7.46875 13.859375 -6.90625 C 13.828125 -6.34375 13.8125 -5.847656 13.8125 -5.421875 C 13.78125 -5.015625 13.765625 -4.679688 13.765625 -4.421875 C 13.765625 -4.160156 13.75 -3.972656 13.71875 -3.859375 C 13.6875 -3.796875 13.671875 -3.6875 13.671875 -3.53125 C 13.671875 -3.375 13.65625 -3.191406 13.625 -2.984375 C 13.476562 -1.972656 13.3125 -1.375 13.125 -1.1875 C 12.9375 -1.125 12.8125 -1.09375 12.75 -1.09375 C 12.539062 -1.15625 12.265625 -1.335938 11.921875 -1.640625 C 11.585938 -1.953125 11.257812 -2.300781 10.9375 -2.6875 C 10.625 -3.070312 10.335938 -3.453125 10.078125 -3.828125 C 9.816406 -4.210938 9.640625 -4.515625 9.546875 -4.734375 C 9.390625 -5.035156 9.3125 -5.289062 9.3125 -5.5 C 9.3125 -5.65625 9.328125 -6.023438 9.359375 -6.609375 C 9.390625 -7.191406 9.4375 -7.757812 9.5 -8.3125 C 9.5625 -8.914062 9.613281 -9.523438 9.65625 -10.140625 C 9.707031 -10.753906 9.765625 -11.179688 9.828125 -11.421875 C 9.910156 -12.160156 9.953125 -12.679688 9.953125 -12.984375 C 9.953125 -13.203125 9.90625 -13.351562 9.8125 -13.4375 C 9.726562 -13.53125 9.671875 -13.578125 9.640625 -13.578125 C 9.578125 -13.578125 9.347656 -13.457031 8.953125 -13.21875 C 8.460938 -12.789062 8.078125 -12.253906 7.796875 -11.609375 C 7.523438 -10.960938 7.265625 -10.148438 7.015625 -9.171875 C 6.953125 -8.929688 6.890625 -8.613281 6.828125 -8.21875 C 6.773438 -7.820312 6.734375 -7.5625 6.703125 -7.4375 C 6.671875 -7.21875 6.582031 -6.785156 6.4375 -6.140625 C 6.300781 -5.503906 6.15625 -4.832031 6 -4.125 C 5.851562 -3.425781 5.6875 -2.785156 5.5 -2.203125 C 5.320312 -1.617188 5.171875 -1.28125 5.046875 -1.1875 C 4.859375 -1.125 4.675781 -1.15625 4.5 -1.28125 C 4.375 -1.34375 4.195312 -1.476562 3.96875 -1.6875 C 3.738281 -1.90625 3.507812 -2.148438 3.28125 -2.421875 C 3.050781 -2.703125 2.828125 -2.976562 2.609375 -3.25 C 2.398438 -3.53125 2.234375 -3.75 2.109375 -3.90625 C 1.921875 -4.207031 1.757812 -4.445312 1.625 -4.625 C 1.488281 -4.8125 1.390625 -4.984375 1.328125 -5.140625 C 1.171875 -5.597656 1.140625 -6.101562 1.234375 -6.65625 C 1.328125 -7.144531 1.4375 -7.734375 1.5625 -8.421875 C 1.6875 -9.109375 1.832031 -9.828125 2 -10.578125 C 2.164062 -11.328125 2.347656 -12.066406 2.546875 -12.796875 C 2.742188 -13.535156 2.96875 -14.179688 3.21875 -14.734375 C 3.550781 -15.585938 3.71875 -16.148438 3.71875 -16.421875 C 3.71875 -16.828125 3.59375 -17.148438 3.34375 -17.390625 C 3.289062 -17.453125 3.265625 -17.5 3.265625 -17.53125 C 3.265625 -17.5625 3.347656 -17.644531 3.515625 -17.78125 C 3.679688 -17.914062 3.828125 -17.984375 3.953125 -17.984375 C 4.097656 -17.984375 4.253906 -17.945312 4.421875 -17.875 C 4.597656 -17.800781 4.789062 -17.703125 5 -17.578125 C 5.28125 -17.453125 5.578125 -17.222656 5.890625 -16.890625 C 6.210938 -16.554688 6.484375 -16.390625 6.703125 -16.390625 C 6.972656 -16.410156 7.398438 -16.789062 7.984375 -17.53125 C 8.171875 -17.738281 8.347656 -17.878906 8.515625 -17.953125 C 8.679688 -18.035156 8.960938 -18.078125 9.359375 -18.078125 C 9.878906 -18.078125 10.382812 -17.929688 10.875 -17.640625 C 11.363281 -17.347656 11.789062 -17.035156 12.15625 -16.703125 C 12.375 -16.515625 12.554688 -16.367188 12.703125 -16.265625 C 12.859375 -16.160156 13 -16.078125 13.125 -16.015625 C 13.28125 -15.921875 13.414062 -15.890625 13.53125 -15.921875 C 13.75 -16.015625 14.039062 -16.273438 14.40625 -16.703125 C 14.65625 -17.035156 14.976562 -17.382812 15.375 -17.75 C 15.769531 -18.125 16.195312 -18.3125 16.65625 -18.3125 Z M 16.65625 -18.3125 "/></g></g></g><g fill="#fff5cc" fill-opacity="1"><g transform="translate(874.748795, 341.202982)"><g><path d="M 5.328125 -18.5 C 5.503906 -18.550781 5.785156 -18.59375 6.171875 -18.625 C 6.554688 -18.65625 6.820312 -18.671875 6.96875 -18.671875 C 7.21875 -18.671875 7.515625 -18.617188 7.859375 -18.515625 C 8.210938 -18.410156 8.570312 -18.28125 8.9375 -18.125 C 9.3125 -17.96875 9.664062 -17.796875 10 -17.609375 C 10.34375 -17.429688 10.617188 -17.265625 10.828125 -17.109375 C 11.316406 -16.773438 11.726562 -16.425781 12.0625 -16.0625 C 12.40625 -15.695312 12.710938 -15.316406 12.984375 -14.921875 C 13.109375 -14.734375 13.207031 -14.53125 13.28125 -14.3125 C 13.363281 -14.101562 13.421875 -13.859375 13.453125 -13.578125 C 13.472656 -13.335938 13.46875 -12.988281 13.4375 -12.53125 C 13.414062 -12.070312 13.34375 -11.503906 13.21875 -10.828125 C 13.125 -10.242188 13.078125 -9.921875 13.078125 -9.859375 C 13.078125 -9.835938 13.0625 -9.722656 13.03125 -9.515625 C 13 -9.316406 12.953125 -9.003906 12.890625 -8.578125 C 12.742188 -7.722656 12.671875 -7.234375 12.671875 -7.109375 C 12.609375 -6.773438 12.582031 -6.421875 12.59375 -6.046875 C 12.613281 -5.679688 12.65625 -5.269531 12.71875 -4.8125 C 12.800781 -4.207031 12.84375 -3.90625 12.84375 -3.90625 C 12.9375 -3.90625 13.117188 -3.929688 13.390625 -3.984375 C 13.671875 -4.046875 14.039062 -4.125 14.5 -4.21875 C 14.59375 -4.21875 14.675781 -4.222656 14.75 -4.234375 C 14.832031 -4.253906 14.898438 -4.265625 14.953125 -4.265625 L 15.140625 -4.265625 L 15 -4 C 14.851562 -3.445312 14.648438 -3.054688 14.390625 -2.828125 C 14.128906 -2.597656 13.875 -2.453125 13.625 -2.390625 C 13.445312 -2.328125 13.226562 -2.335938 12.96875 -2.421875 C 12.707031 -2.515625 12.421875 -2.640625 12.109375 -2.796875 C 11.503906 -3.160156 11.09375 -3.316406 10.875 -3.265625 C 10.78125 -3.265625 10.613281 -3.140625 10.375 -2.890625 C 10.125 -2.554688 9.816406 -2.25 9.453125 -1.96875 C 9.085938 -1.695312 8.691406 -1.53125 8.265625 -1.46875 C 7.921875 -1.375 7.535156 -1.375 7.109375 -1.46875 C 6.097656 -1.6875 4.859375 -2.390625 3.390625 -3.578125 C 2.722656 -4.097656 2.28125 -4.503906 2.0625 -4.796875 C 1.851562 -5.085938 1.671875 -5.445312 1.515625 -5.875 C 1.421875 -6.113281 1.375 -6.523438 1.375 -7.109375 C 1.375 -7.691406 1.40625 -8.164062 1.46875 -8.53125 C 1.59375 -9.332031 1.9375 -10.128906 2.5 -10.921875 C 3.0625 -11.710938 3.726562 -12.25 4.5 -12.53125 C 4.59375 -12.59375 4.742188 -12.640625 4.953125 -12.671875 C 5.171875 -12.703125 5.429688 -12.742188 5.734375 -12.796875 C 6.066406 -12.828125 6.363281 -12.847656 6.625 -12.859375 C 6.882812 -12.878906 7.140625 -12.875 7.390625 -12.84375 C 8.367188 -12.78125 8.859375 -12.765625 8.859375 -12.796875 C 8.859375 -12.828125 8.890625 -12.945312 8.953125 -13.15625 C 9.015625 -13.375 9.070312 -13.617188 9.125 -13.890625 C 9.1875 -14.171875 9.25 -14.425781 9.3125 -14.65625 C 9.375 -14.882812 9.40625 -15.015625 9.40625 -15.046875 C 9.40625 -15.203125 9.253906 -15.3125 8.953125 -15.375 C 8.859375 -15.40625 8.554688 -15.394531 8.046875 -15.34375 C 7.546875 -15.300781 7.160156 -15.25 6.890625 -15.1875 C 6.421875 -15.09375 5.851562 -14.878906 5.1875 -14.546875 C 4.9375 -14.421875 4.710938 -14.328125 4.515625 -14.265625 C 4.316406 -14.210938 4.128906 -14.1875 3.953125 -14.1875 C 3.460938 -14.269531 3.0625 -14.523438 2.75 -14.953125 C 2.539062 -15.265625 2.476562 -15.617188 2.5625 -16.015625 C 2.625 -16.285156 2.75 -16.554688 2.9375 -16.828125 C 3.125 -17.109375 3.351562 -17.363281 3.625 -17.59375 C 3.894531 -17.820312 4.175781 -18.019531 4.46875 -18.1875 C 4.757812 -18.363281 5.046875 -18.46875 5.328125 -18.5 Z M 8.578125 -9.453125 C 8.546875 -9.640625 8.484375 -9.734375 8.390625 -9.734375 C 7.535156 -9.640625 6.910156 -9.238281 6.515625 -8.53125 C 6.117188 -7.832031 5.84375 -7.113281 5.6875 -6.375 C 5.59375 -5.945312 5.578125 -5.644531 5.640625 -5.46875 C 5.734375 -5.03125 5.875 -4.796875 6.0625 -4.765625 C 6.300781 -4.679688 6.617188 -4.789062 7.015625 -5.09375 C 7.421875 -5.34375 8.019531 -5.863281 8.8125 -6.65625 L 8.953125 -6.890625 L 8.90625 -7.34375 C 8.8125 -7.863281 8.75 -8.296875 8.71875 -8.640625 C 8.6875 -8.992188 8.640625 -9.265625 8.578125 -9.453125 Z M 8.578125 -9.453125 "/></g></g></g><g fill="#fff5cc" fill-opacity="1"><g transform="translate(890.168037, 341.202982)"><g><path d="M 7.796875 -18.765625 C 8.222656 -18.796875 8.613281 -18.78125 8.96875 -18.71875 C 9.320312 -18.65625 9.648438 -18.597656 9.953125 -18.546875 C 10.535156 -18.390625 11.15625 -18.066406 11.8125 -17.578125 C 12.46875 -17.085938 13.015625 -16.613281 13.453125 -16.15625 C 13.691406 -15.820312 13.882812 -15.523438 14.03125 -15.265625 C 14.1875 -15.003906 14.296875 -14.742188 14.359375 -14.484375 C 14.421875 -14.222656 14.441406 -13.9375 14.421875 -13.625 C 14.410156 -13.320312 14.375 -12.972656 14.3125 -12.578125 C 14.25 -12.359375 14.210938 -12.15625 14.203125 -11.96875 C 14.191406 -11.789062 14.171875 -11.59375 14.140625 -11.375 C 14.015625 -10.457031 14.015625 -7.953125 14.140625 -3.859375 C 14.171875 -3.054688 14.191406 -2.378906 14.203125 -1.828125 C 14.210938 -1.285156 14.210938 -0.8125 14.203125 -0.40625 C 14.191406 -0.0078125 14.171875 0.332031 14.140625 0.625 C 14.109375 0.914062 14.046875 1.210938 13.953125 1.515625 C 13.890625 1.785156 13.765625 2.117188 13.578125 2.515625 C 13.398438 2.921875 13.1875 3.3125 12.9375 3.6875 C 12.695312 4.070312 12.421875 4.394531 12.109375 4.65625 C 11.804688 4.914062 11.488281 5.046875 11.15625 5.046875 C 10.539062 5.046875 9.832031 4.914062 9.03125 4.65625 C 8.238281 4.394531 7.550781 4.160156 6.96875 3.953125 C 6.757812 3.859375 6.492188 3.734375 6.171875 3.578125 C 5.847656 3.421875 5.546875 3.273438 5.265625 3.140625 C 4.992188 3.003906 4.757812 2.875 4.5625 2.75 C 4.363281 2.625 4.265625 2.550781 4.265625 2.53125 C 4.203125 2.46875 4.171875 2.394531 4.171875 2.3125 C 4.171875 2.238281 4.234375 2.203125 4.359375 2.203125 C 5.066406 2.109375 5.703125 2.019531 6.265625 1.9375 C 6.828125 1.863281 7.320312 1.785156 7.75 1.703125 C 8.644531 1.453125 9.375 1.066406 9.9375 0.546875 C 10.5 0.0234375 10.828125 -0.691406 10.921875 -1.609375 C 10.953125 -2.242188 10.953125 -2.578125 10.921875 -2.609375 C 10.828125 -2.640625 10.628906 -2.566406 10.328125 -2.390625 C 10.046875 -2.234375 9.628906 -2.113281 9.078125 -2.03125 C 8.535156 -1.957031 8.125 -1.9375 7.84375 -1.96875 C 7.632812 -1.96875 7.441406 -1.984375 7.265625 -2.015625 C 7.097656 -2.046875 6.941406 -2.09375 6.796875 -2.15625 C 5.691406 -2.550781 4.664062 -3.347656 3.71875 -4.546875 C 3.195312 -5.210938 2.773438 -5.769531 2.453125 -6.21875 C 2.128906 -6.664062 1.894531 -7.039062 1.75 -7.34375 C 1.65625 -7.550781 1.566406 -7.804688 1.484375 -8.109375 C 1.410156 -8.421875 1.390625 -8.789062 1.421875 -9.21875 C 1.484375 -10.289062 1.628906 -11.304688 1.859375 -12.265625 C 2.085938 -13.234375 2.414062 -14.160156 2.84375 -15.046875 C 3.144531 -15.628906 3.445312 -16.148438 3.75 -16.609375 C 4.0625 -17.066406 4.398438 -17.457031 4.765625 -17.78125 C 5.140625 -18.101562 5.570312 -18.347656 6.0625 -18.515625 C 6.550781 -18.679688 7.128906 -18.765625 7.796875 -18.765625 Z M 10.78125 -14.453125 L 10.78125 -15.140625 L 10.46875 -15.140625 C 9.914062 -15.140625 9.398438 -14.984375 8.921875 -14.671875 C 8.453125 -14.367188 8.03125 -13.988281 7.65625 -13.53125 C 7.289062 -13.070312 6.976562 -12.578125 6.71875 -12.046875 C 6.457031 -11.515625 6.253906 -11.019531 6.109375 -10.5625 C 5.828125 -9.757812 5.625 -9.035156 5.5 -8.390625 C 5.382812 -7.753906 5.375 -7.144531 5.46875 -6.5625 C 5.519531 -6.101562 5.609375 -5.875 5.734375 -5.875 C 5.828125 -5.78125 6.148438 -5.992188 6.703125 -6.515625 C 7.035156 -6.785156 7.316406 -7.054688 7.546875 -7.328125 C 7.773438 -7.609375 8 -7.890625 8.21875 -8.171875 C 8.28125 -8.265625 8.425781 -8.523438 8.65625 -8.953125 C 8.882812 -9.378906 9.128906 -9.84375 9.390625 -10.34375 C 9.648438 -10.851562 9.882812 -11.328125 10.09375 -11.765625 C 10.3125 -12.210938 10.4375 -12.515625 10.46875 -12.671875 C 10.550781 -12.910156 10.625 -13.175781 10.6875 -13.46875 C 10.75 -13.757812 10.78125 -14.085938 10.78125 -14.453125 Z M 10.78125 -14.453125 "/></g></g></g><g fill="#fff5cc" fill-opacity="1"><g transform="translate(906.596877, 341.202982)"><g><path d="M 8.125 -18.765625 C 8.425781 -18.796875 8.835938 -18.734375 9.359375 -18.578125 C 10.003906 -18.367188 10.769531 -17.941406 11.65625 -17.296875 C 12.082031 -16.898438 12.5625 -16.457031 13.09375 -15.96875 C 13.632812 -15.476562 14.007812 -15.066406 14.21875 -14.734375 C 14.28125 -14.671875 14.3125 -14.613281 14.3125 -14.5625 C 14.3125 -14.519531 14.328125 -14.484375 14.359375 -14.453125 C 14.578125 -14.148438 14.703125 -13.753906 14.734375 -13.265625 C 14.765625 -12.679688 14.425781 -12.007812 13.71875 -11.25 C 12.582031 -10.144531 11.128906 -9.207031 9.359375 -8.4375 C 9.054688 -8.320312 8.75 -8.1875 8.4375 -8.03125 C 7.894531 -7.757812 7.191406 -7.625 6.328125 -7.625 L 5.328125 -7.625 C 5.234375 -7.5625 5.15625 -7.4375 5.09375 -7.25 C 4.9375 -6.914062 5 -6.550781 5.28125 -6.15625 L 5.5 -5.734375 L 5.78125 -5.59375 C 6 -5.476562 6.351562 -5.421875 6.84375 -5.421875 C 7.269531 -5.421875 7.726562 -5.476562 8.21875 -5.59375 C 8.707031 -5.71875 9.210938 -5.859375 9.734375 -6.015625 C 10.097656 -6.128906 10.382812 -6.21875 10.59375 -6.28125 C 10.8125 -6.34375 10.96875 -6.390625 11.0625 -6.421875 C 11.09375 -6.453125 11.289062 -6.5625 11.65625 -6.75 C 12.90625 -7.300781 14.375 -8.050781 16.0625 -9 C 16.21875 -9.0625 16.398438 -9.144531 16.609375 -9.25 C 16.828125 -9.351562 17.023438 -9.453125 17.203125 -9.546875 C 17.390625 -9.640625 17.554688 -9.722656 17.703125 -9.796875 C 17.859375 -9.867188 17.953125 -9.90625 17.984375 -9.90625 C 18.015625 -9.820312 18.015625 -9.585938 17.984375 -9.203125 C 17.953125 -8.816406 17.921875 -8.503906 17.890625 -8.265625 C 17.804688 -7.890625 17.648438 -7.488281 17.421875 -7.0625 C 17.191406 -6.632812 16.929688 -6.195312 16.640625 -5.75 C 16.347656 -5.3125 16.03125 -4.910156 15.6875 -4.546875 C 15.351562 -4.179688 15.035156 -3.890625 14.734375 -3.671875 C 14.609375 -3.546875 14.53125 -3.484375 14.5 -3.484375 C 14.226562 -3.210938 13.875 -2.96875 13.4375 -2.75 C 13.007812 -2.539062 12.554688 -2.359375 12.078125 -2.203125 C 11.609375 -2.046875 11.128906 -1.929688 10.640625 -1.859375 C 10.148438 -1.785156 9.722656 -1.75 9.359375 -1.75 C 8.203125 -1.75 7.253906 -1.976562 6.515625 -2.4375 C 5.785156 -2.894531 5.050781 -3.566406 4.3125 -4.453125 C 4.070312 -4.722656 3.863281 -4.9375 3.6875 -5.09375 C 3.519531 -5.25 3.40625 -5.375 3.34375 -5.46875 C 2.914062 -5.894531 2.59375 -6.28125 2.375 -6.625 C 2.164062 -6.976562 2.015625 -7.3125 1.921875 -7.625 C 1.367188 -8.625 1.265625 -9.738281 1.609375 -10.96875 C 1.753906 -11.488281 2.054688 -12.175781 2.515625 -13.03125 C 2.984375 -13.882812 3.519531 -14.722656 4.125 -15.546875 C 4.738281 -16.378906 5.394531 -17.109375 6.09375 -17.734375 C 6.800781 -18.359375 7.476562 -18.703125 8.125 -18.765625 Z M 10.734375 -14.875 C 10.398438 -15.113281 10.050781 -15.097656 9.6875 -14.828125 C 9.257812 -14.609375 8.769531 -14.210938 8.21875 -13.640625 C 7.664062 -13.078125 7.234375 -12.550781 6.921875 -12.0625 C 6.679688 -11.726562 6.492188 -11.382812 6.359375 -11.03125 C 6.222656 -10.6875 6.164062 -10.515625 6.1875 -10.515625 C 6.4375 -10.515625 6.742188 -10.613281 7.109375 -10.8125 C 7.472656 -11.007812 7.851562 -11.253906 8.25 -11.546875 C 8.65625 -11.835938 9.023438 -12.140625 9.359375 -12.453125 C 9.691406 -12.773438 9.9375 -13.046875 10.09375 -13.265625 C 10.425781 -13.660156 10.671875 -14.085938 10.828125 -14.546875 L 10.875 -14.78125 Z M 10.734375 -14.875 "/></g></g></g></svg>